<svg width="160" height="160" viewBox="0 0 160 160" fill="none" xmlns="http://www.w3.org/2000/svg">
  <ellipse cx="80" cy="88" rx="44" ry="48" fill="#FFF8F2"/>
  <path d="M42 56C30 46 26 28 36 22C48 16 62 26 66 40L42 56Z" fill="#F3A445"/>
  <path d="M118 56C130 46 134 28 124 22C112 16 98 26 94 40L118 56Z" fill="#F3A445"/>
  <path d="M46 124C48 88 52 56 80 56C108 56 112 88 114 124" stroke="#111827" stroke-width="4" stroke-linecap="round"/>
  <path d="M49 77C51 62 62 50 80 50C98 50 109 62 111 77" fill="#FFF8F2"/>
  <path d="M49 77C51 62 62 50 80 50C98 50 109 62 111 77" stroke="#111827" stroke-width="4" stroke-linecap="round"/>
  <path d="M57 72C58 58 66 48 80 48C94 48 102 58 103 72V94C103 110 92 124 80 124C68 124 57 110 57 94V72Z" fill="#FFF8F2"/>
  <path d="M57 72C58 58 66 48 80 48C94 48 102 58 103 72V94C103 110 92 124 80 124C68 124 57 110 57 94V72Z" stroke="#111827" stroke-width="4"/>
  <path d="M57 60C59 51 67 44 77 44H64C57 44 50 48 46 55L43 61L57 60Z" fill="#F3A445"/>
  <path d="M103 60C101 51 93 44 83 44H96C103 44 110 48 114 55L117 61L103 60Z" fill="#F3A445"/>
  <path d="M67 74C67 69.0294 70.5817 65 75 65C79.4183 65 83 69.0294 83 74C83 78.9706 79.4183 83 75 83C70.5817 83 67 78.9706 67 74Z" fill="#111827"/>
  <path d="M77 72C77 70.3431 75.6569 69 74 69C72.3431 69 71 70.3431 71 72C71 73.6569 72.3431 75 74 75C75.6569 75 77 73.6569 77 72Z" fill="white"/>
  <path d="M93 74C93 69.0294 89.4183 65 85 65C80.5817 65 77 69.0294 77 74C77 78.9706 80.5817 83 85 83C89.4183 83 93 78.9706 93 74Z" fill="#111827"/>
  <path d="M87 72C87 70.3431 85.6569 69 84 69C82.3431 69 81 70.3431 81 72C81 73.6569 82.3431 75 84 75C85.6569 75 87 73.6569 87 72Z" fill="white"/>
  <path d="M80 87C73 87 69 93 69 98C69 103 73 107 80 107C87 107 91 103 91 98C91 93 87 87 80 87Z" fill="#2B0E16"/>
  <path d="M72 96L80 92L88 96" stroke="white" stroke-width="3" stroke-linecap="round" stroke-linejoin="round"/>
  <path d="M80 101C75 101 72 106 72 111C72 118 76 124 80 124C84 124 88 118 88 111C88 106 85 101 80 101Z" fill="#F15A29"/>
  <path d="M62 67C64 58 70 52 78 48" stroke="#111827" stroke-width="4" stroke-linecap="round"/>
  <path d="M98 67C96 58 90 52 82 48" stroke="#111827" stroke-width="4" stroke-linecap="round"/>
</svg>
